<?xml version="1.0" encoding="UTF-8" standalone="no"?>
<!DOCTYPE svg PUBLIC "-//W3C//DTD SVG 1.1//EN" "http://www.w3.org/Graphics/SVG/1.1/DTD/svg11.dtd">
<svg width="100%" height="100%" viewBox="0 0 67 67" version="1.1" xmlns="http://www.w3.org/2000/svg" xmlns:xlink="http://www.w3.org/1999/xlink" xml:space="preserve" xmlns:serif="http://www.serif.com/" style="fill-rule:evenodd;clip-rule:evenodd;stroke-linejoin:round;stroke-miterlimit:2;">
    <path d="M66.667,6.771L66.667,59.896C66.667,63.633 63.633,66.667 59.896,66.667L6.771,66.667C3.034,66.667 0,63.633 0,59.896L0,6.771C0,3.034 3.034,0 6.771,0L59.896,0C63.633,0 66.667,3.034 66.667,6.771Z" style="fill:url(#_Linear1);"/>
    <path d="M29.167,8.332L29.167,16.666L16.667,16.666L16.667,29.166L29.167,29.166L29.167,37.499L16.667,37.499L16.667,58.332L8.334,58.332L8.334,8.332L29.167,8.332ZM37.5,29.166L37.5,37.499L58.333,37.499L58.333,29.166L37.5,29.166Z" style="fill:white;fill-rule:nonzero;"/>
    <path d="M33.333,8.397L58.333,8.334L58.333,58.334L50,58.334L50,37.501L41.667,37.564L41.667,58.397L33.334,58.397L33.334,8.397L33.333,8.397ZM41.666,29.23L49.999,29.167L49.999,16.667L41.666,16.73L41.666,29.23Z" style="fill:white;"/>
    <defs>
        <linearGradient id="_Linear1" x1="0" y1="0" x2="1" y2="0" gradientUnits="userSpaceOnUse" gradientTransform="matrix(67,-66.667,66.667,67,0,66.667)"><stop offset="0" style="stop-color:rgb(44,255,17);stop-opacity:1"/><stop offset="0" style="stop-color:rgb(0,155,0);stop-opacity:1"/><stop offset="0.5" style="stop-color:rgb(66,212,170);stop-opacity:1"/><stop offset="1" style="stop-color:rgb(75,251,255);stop-opacity:1"/></linearGradient>
    </defs>
</svg>
